<svg width="23" height="23" viewBox="0 0 23 23" fill="none" xmlns="http://www.w3.org/2000/svg">
<path fill-rule="evenodd" clip-rule="evenodd" d="M14.4047 2.0351C14.3136 2.06049 14.1669 2.12422 14.0787 2.17668C13.9904 2.22919 13.2913 2.89997 12.525 3.66729L11.1318 5.06244L10.6592 4.59806C10.0481 3.99748 9.9169 3.92474 9.44453 3.92456C9.16981 3.92441 9.06755 3.9398 8.93739 4.00081C8.69237 4.11571 8.44735 4.35299 8.33267 4.58647C8.2429 4.76922 8.23106 4.83353 8.2312 5.13736C8.23135 5.44398 8.24254 5.50297 8.33408 5.68051C8.41758 5.8424 9.15615 6.59903 12.2823 9.72533C16.641 14.0841 16.2874 13.7733 16.8886 13.7733C17.1724 13.7733 17.2414 13.7602 17.4212 13.672C17.6823 13.5438 17.9291 13.2728 18.0312 13.0022C18.0945 12.8346 18.1062 12.7411 18.0934 12.506C18.0698 12.0745 17.9916 11.9406 17.4262 11.364L16.9454 10.8738L18.3583 9.46303C19.5908 8.23248 19.786 8.02251 19.8867 7.81944C19.9851 7.62105 20.0018 7.54849 19.9999 7.32866C19.9971 7.01157 19.8863 6.74623 19.6649 6.52611C19.4292 6.29183 19.2249 6.20866 18.881 6.20699C18.3516 6.20435 18.4146 6.15702 16.7704 7.79395L15.3119 9.24606L14.0362 7.97091L12.7605 6.69575L14.2127 5.23763C15.8495 3.59422 15.8028 3.65624 15.8008 3.12773C15.8 2.88665 15.7839 2.80771 15.7048 2.657C15.4474 2.16626 14.8902 1.89972 14.4047 2.0351Z" fill="#303F9F"/>
<path d="M5.87757 8.571C6.14023 8.16412 6.27669 8.01012 7.1957 7.08315L7.62226 6.65293L8.04882 6.2227L11.9175 10.0885L15.7861 13.9544L14.8702 14.8596C14.3258 15.3978 13.834 15.8502 13.6575 15.9753C11.4975 17.5059 8.39348 16.8214 6.5 15C5.51387 14.0514 5.33497 12.9575 5.19981 11.5903C5.08524 10.4311 5.22434 9.58281 5.87757 8.571Z" fill="#F15A2C"/>
<path d="M4.69967 15.7307C4.5722 15.2326 4.62327 14.7064 4.84395 14.2442C4.90578 14.1147 4.96168 14.0087 4.96816 14.0087C4.97461 14.0087 5.07886 14.1854 5.19982 14.4013C5.74061 15.3666 6.45336 16.1078 7.38975 16.6786C7.59344 16.8028 7.81307 16.9222 7.8778 16.9439C7.94254 16.9657 7.99553 16.9977 7.99553 17.0151C7.99553 17.0682 7.55005 17.2627 7.28554 17.325C6.98209 17.3965 6.43662 17.3762 6.17153 17.2835L5.99574 17.222L4.66823 18.5442C3.93809 19.2714 3.30529 19.8844 3.262 19.9065C3.06965 20.0046 2.82434 20.0272 2.61431 19.9662C2.10047 19.8169 1.849 19.2229 2.09536 18.7403C2.11746 18.6971 2.72889 18.0664 3.4541 17.3388L4.77262 16.016L4.69967 15.7307Z" fill="#303F9F"/>
</svg>
