<svg width="23" height="23" viewBox="0 0 23 23" fill="none" xmlns="http://www.w3.org/2000/svg">
<path fill-rule="evenodd" clip-rule="evenodd" d="M4.88889 3.01208C4.06159 3.12838 3.33981 3.74666 3.08215 4.5597L3 4.81889V11.5023V18.1857L3.08178 18.4449C3.29763 19.129 3.80067 19.6432 4.50611 19.9008L4.77778 20H11.4815H18.1852L18.4444 19.9182C19.1287 19.7024 19.6431 19.1995 19.9008 18.4943L20 18.2227V11.5208V4.81889L19.9182 4.5597C19.7019 3.874 19.1595 3.32511 18.463 3.08691L18.2222 3.00456L11.6111 3.00053C7.975 2.99827 4.95 3.00349 4.88889 3.01208ZM10.4536 5.48571C7.93652 5.90886 5.91615 7.9439 5.47337 10.5021C5.39067 10.98 5.39067 12.0246 5.47337 12.5025C5.87326 14.8128 7.53478 16.6901 9.76648 17.3529C10.0916 17.4495 10.7068 17.5741 10.8611 17.5746C10.8966 17.5747 10.9074 17.4013 10.9074 16.8305C10.9074 16.0035 10.9293 15.9031 11.1434 15.7504C11.2347 15.6853 11.3103 15.6678 11.5 15.6678C11.7762 15.6678 11.8909 15.7307 12.016 15.9506C12.0864 16.0744 12.0926 16.1451 12.0926 16.8334V17.5817L12.287 17.5565C13.6103 17.3852 14.8653 16.7663 15.8153 15.8165C17.6597 13.9726 18.1272 11.1706 16.9826 8.82011C16.0934 6.99401 14.3044 5.70924 12.287 5.44805L12.0926 5.42288V6.17056C12.0926 6.99967 12.0736 7.08813 11.8612 7.24509C11.69 7.37161 11.4021 7.3885 11.2164 7.28297C10.9336 7.12227 10.9273 7.10028 10.9146 6.21666C10.9016 5.3102 10.9587 5.40077 10.4536 5.48571Z" fill="#303F9F"/>
<path d="M8.1416 11.3985C8.18041 11.0198 8.48156 10.6535 8.84686 10.5407C8.91071 10.521 9.06649 10.5107 9.19304 10.5178C9.75712 10.5497 10.1755 11.0421 10.1177 11.6061C10.0625 12.1444 9.56712 12.5455 9.02582 12.4901C8.48734 12.4349 8.08615 11.9396 8.1416 11.3985Z" fill="#F15A2C"/>
<path d="M12.8823 11.3985C12.9212 11.0198 13.2223 10.6535 13.5876 10.5407C13.6514 10.521 13.8072 10.5107 13.9338 10.5178C14.4979 10.5497 14.9162 11.0421 14.8584 11.6061C14.8032 12.1444 14.3079 12.5455 13.7666 12.4901C13.2281 12.4349 12.8269 11.9396 12.8823 11.3985Z" fill="#F15A2C"/>
</svg>
